<?xml version="1.0" encoding="utf-8"?>
<!-- Generator: Adobe Illustrator 19.0.0, SVG Export Plug-In . SVG Version: 6.00 Build 0)  -->
<svg version="1.1" id="layer" xmlns="http://www.w3.org/2000/svg" xmlns:xlink="http://www.w3.org/1999/xlink" x="0px" y="0px"
	 viewBox="-153 -46 652 652" style="enable-background:new -153 -46 652 652;" xml:space="preserve">
<style type="text/css">
	.st0{fill:#222426;}
	.st1{fill:#BCBBBB;}
	.st2{fill:#F48024;}
</style>
<path class="st0" d="M9.1,293.4L2,292.7c-5.5-0.3-7.4-2.6-7.4-6.4c0-4.5,3.2-7.1,9.7-7.1c4.2-0.3,8.4,1,11.6,3.5l4.2-4.2
	c-4.5-3.2-9.9-4.8-15.5-4.5c-9.3,0-15.8,4.8-15.8,12.6c0,7.1,4.5,10.9,12.9,11.6l7.1,0.6c5.1,0.3,7.1,2.6,7.1,6.4
	c0,5.2-4.5,7.7-11.6,7.7c-5.1,0.3-10-1.6-13.5-5.1l-4.2,4.2c4.8,4.5,11.3,6.4,17.7,6.1c10.3,0,17.7-4.8,17.7-13.2
	C21.9,296.6,16.8,294,9.1,293.4L9.1,293.4z M59.9,273.7c-7.1,0-11.3,1.3-15.1,6.1L49,284c2.5-3.5,6.7-5.4,10.9-4.8
	c8,0,10.9,3.2,10.9,9.3v4.2H58c-9.7,0-14.8,4.8-14.8,12.5c0,3.2,1,6.4,3.2,8.7c2.6,2.9,6.1,3.9,12.2,3.9c4.5,0.3,9.3-1.3,12.6-4.5
	v4.2h6.4v-29.3C77.3,278.9,71.5,273.7,59.9,273.7L59.9,273.7z M70.8,302.4c0.3,2.6-0.3,5.5-2.2,7.4c-2.7,2.2-6.2,3.3-9.7,2.9
	c-6.8,0-10-2.2-10-7.4c0-5.1,3.2-7.7,9.7-7.7h12.2V302.4z M102,279.5c3.9,0,7.7,1.6,10,4.8l4.2-4.2c-3.5-4.3-8.7-6.6-14.2-6.4
	c-10.9,0-19,7.4-19,22.2c0,14.8,8.4,22.2,19,22.2c5.5,0.3,10.6-2.2,14.2-6.4l-4.2-4.2c-2.2,3.2-6.1,4.8-10,4.8
	c-3.9,0.3-7.7-1.6-10-4.8c-2.3-3.5-3.2-7.4-2.9-11.6c-0.3-4.2,0.6-8,2.9-11.6C94.3,281.1,98.2,279.2,102,279.5L102,279.5z
	 M156.1,274.4h-7.7l-19.6,19v-38.3h-6.4v62.4h6.4v-15.8l7.7-7.7l14.5,23.5h7.7l-18-27.7L156.1,274.4z M185.7,273.7
	c-5.1,0-10.3,1.6-13.8,5.5c-4.2,4.2-5.1,9.7-5.1,17.4c0,8,1,13.2,5.1,17.4c3.7,3.6,8.7,5.5,13.8,5.5c5.1,0.3,10.3-1.6,13.8-5.5
	c4.2-4.2,5.2-9.3,5.2-17.4c0-8-1-12.9-5.2-17.4C196,275.4,190.9,273.4,185.7,273.7L185.7,273.7z M191.1,307.5
	c-2.9,2.6-7.4,2.6-10.3,0c-2.3-2.3-2.6-6.4-2.6-10.9c0-4.5,0.3-8.7,2.6-10.9c2.9-2.6,7.4-2.6,10.3,0c2.3,2.3,2.6,6.4,2.6,10.9
	C193.7,301.4,193.4,305.2,191.1,307.5L191.1,307.5z M234.9,274l-9,27.7l-9-27.7H205l16.7,45h8.7l16.4-45H234.9z M265.8,274
	c-11.6,0-19.6,8-19.6,22.5c0,18.3,10.3,23.2,20.9,23.2c6.4,0.3,12.9-2.2,17.1-7.1l-6.8-6.4c-2.6,2.6-6.4,4.2-10.3,3.9
	c-5.1,0.2-9.5-3.6-10-8.7v-1.3h28V295c0.3-12.2-6.8-21.2-19.3-21.2V274z M257.1,292.4l1-4.8c1.3-2.9,4.2-4.5,7.4-4.5
	c3.2,0,6.1,1.6,7.4,4.5l1,4.8H257.1z M299.9,278.6v-4.2H289v45h11.3v-27c0-4.2,2.6-7.7,6.8-8.4h0.7c2.2,0,4.5,1,5.8,2.6l8.4-8.4
	c-2.6-2.9-6.4-4.4-10.3-4.2c-4.2,0-8.4,1.3-11.3,4.5H299.9z M324.3,269.5v49.5h11.3v-35.4h8.4V275h-8.4v-4.8c0-1.9,1-3.9,3.2-4.2
	h4.8v-9.7h-6.4c-6.9-0.2-12.7,5.3-12.9,12.2V269.5z M389.7,273.7c-5.2,0-10.3,1.6-13.8,5.5c-4.2,4.2-5.1,9.7-5.1,17.4
	c0,8,1,13.2,5.1,17.4c3.7,3.6,8.7,5.5,13.8,5.5c5.1,0.3,10.3-1.6,13.8-5.5c4.2-4.2,5.1-9.3,5.1-17.4c0-8-1-12.9-5.1-17.4
	C399.9,275.4,394.9,273.4,389.7,273.7L389.7,273.7z M395.1,307.5c-2.9,2.6-7.4,2.6-10.3,0c-2.3-2.3-2.6-6.4-2.6-10.9
	c0-4.5,0.3-8.7,2.6-10.9c2.9-2.6,7.4-2.6,10.3,0c2.2,2.3,2.6,6.4,2.6,10.9C397.7,301.4,397.4,305.2,395.1,307.5L395.1,307.5z
	 M461.7,274l-7.4,27.7L445,274h-8l-9,28l-7.4-27.7h-11.9l13.8,45h9.3l9.3-28.3l9.3,28.3h9.7l13.8-45h-12.2V274z M361.3,305.6v-48.9
	h-11.3v49.5c-0.4,6.8,4.8,12.5,11.6,12.9h8v-9.7h-4.2c-1.9,0.3-3.6-0.6-4.2-2.6V305.6z M43.5,275.3H31.6v-14.2h-6.4v44.7
	c0,6.4,3.5,11.6,10.9,11.6h4.5V312h-3.2c-4.2,0-5.8-2.3-5.8-6.4v-24.8h6.1L43.5,275.3z M43.5,275.3"/>
<path class="st1" d="M-42.4,325.5v-29h12.9v41.8h-96.5v-41.8h12.9v29H-42.4z M-42.4,325.5"/>
<path class="st2" d="M-52.1,303l2.6-9.7l-51.8-10.6l-2.2,10.6L-52.1,303z M-96.5,268.2l48.3,22.5l4.5-9.7L-92,258.6L-96.5,268.2z
	 M-82.9,244.5l40.5,34.1l6.8-8l-40.8-34.1l-6.8,8H-82.9z M-56.9,219.4l-8.7,6.4l31.8,42.8l8.7-6.4L-56.9,219.4z M-103.5,315.9h51.5
	v-9.7h-51.5V315.9z M-103.5,315.9"/>
</svg>
